<svg width="45" height="45" xmlns="http://www.w3.org/2000/svg" stroke="null" style="vector-effect: non-scaling-stroke;">

 <g stroke="null">
  <title stroke="null">background</title>
  <rect stroke="null" fill="none" id="canvas_background" height="47" width="47" y="-1" x="-1"/>
 </g>
 <g stroke="null">
  <title stroke="null">Layer 1</title>
  <path stroke="null" style="vector-effect: non-scaling-stroke;" id="svg_1" fill="none" d="m4.999825,1.808446l36.085524,0l0,42.468283l-36.085524,0l0,-42.468283z"/>
  <path stroke="null" style="vector-effect: non-scaling-stroke;" id="svg_2" d="m37.042587,1.978794l-28,0c-2.21,0 -4,1.79 -4,4l0,28c0,2.21 1.79,4 4,4l8,0l6,6l6,-6l8,0c2.21,0 4,-1.79 4,-4l0,-28c0,-2.21 -1.79,-4 -4,-4zm-12,32l-4,0l0,-4l4,0l0,4zm4.13,-15.49l-1.79,1.84c-1.44,1.44 -2.34,2.65 -2.34,5.65l-4,0l0,-1c0,-2.21 0.9,-4.21 2.34,-5.66l2.49,-2.52c0.72,-0.72 1.17,-1.72 1.17,-2.82c0,-2.21 -1.79,-4 -4,-4s-4,1.79 -4,4l-4,0c0,-4.42 3.58,-8 8,-8s8,3.58 8,8c0,1.76 -0.71,3.35 -1.87,4.51z"/>
 </g>
</svg>